# 3ds Max Wavefront OBJ Exporter v0.97b - (c)2007 guruware
# File Created: 28.09.2014 10:25:58

mtllib spar.mtl

#
# object spar
#

v  6.5005 2.0828 11.4094
v  7.7856 1.5347 11.4094
v  7.3728 1.3237 6.9511
v  5.3204 0.7673 11.5188
v  5.1927 0.6617 7.0456
v  5.1928 0.0002 7.1400
v  7.9109 0.7672 11.5189
v  7.9109 0.0003 11.6283
v  7.4982 0.0002 7.1400
v  6.8797 3.0916 14.5447
v  7.2922 2.2208 13.5582
v  5.9354 2.2208 13.5582
v  6.8563 0.0003 14.8697
v  7.2922 0.0003 13.7916
v  7.2922 1.1104 13.6749
v  3.7401 1.1906 5.2798
v  5.1927 1.3238 6.9511
v  5.0172 2.1956 4.9282
v  3.7400 2.1958 4.9277
v  7.4981 0.6616 7.0456
v  6.4078 0.0001 5.3955
v  4.6896 1.1104 13.6749
v  5.3204 0.0003 11.6283
v  5.3203 1.5348 11.4094
v  6.2364 1.7965 6.9511
v  6.4081 2.1953 4.9287
v  6.8563 1.5458 14.7072
v  3.7397 0.0001 5.3946
v  6.4082 1.1907 5.2790
v  4.6896 2.2208 13.5582
v  3.9174 3.0907 14.5344
v  5.3387 3.0916 14.5447
v  3.9174 0.0003 14.8697
v  3.9174 1.5458 14.7072
v  6.5005 -2.0828 11.4094
v  6.2364 -1.7965 6.9511
v  7.3728 -1.3237 6.9511
v  5.3204 -0.7673 11.5188
v  7.9109 -0.7672 11.5189
v  7.4981 -0.6616 7.0456
v  5.9354 -2.2208 13.5582
v  7.2922 -2.2208 13.5582
v  6.8797 -3.0916 14.5447
v  7.2922 -1.1104 13.6749
v  3.7401 -1.1906 5.2798
v  3.7400 -2.1958 4.9277
v  5.1927 -1.3238 6.9511
v  5.0172 -2.1956 4.9282
v  7.7856 -1.5347 11.4094
v  4.6896 -1.1104 13.6749
v  4.6896 0.0003 13.7916
v  5.3203 -1.5348 11.4094
v  6.4081 -2.1953 4.9287
v  5.1927 -0.6617 7.0456
v  6.8563 -1.5458 14.7072
v  6.4082 -1.1907 5.2790
v  5.3387 -3.0916 14.5447
v  3.9174 -3.0908 14.5344
v  4.6896 -2.2208 13.5582
v  3.9174 -1.5458 14.7072
# 60 vertices

vn 0.3911 0.9169 -0.0796
vn -0.9996 0.0040 0.0284
vn 0.9957 -0.0130 -0.0916
vn 0.0000 0.7497 -0.6617
vn 0.9264 0.0394 0.3746
vn -0.7552 0.0925 0.6490
vn 0.0000 0.9184 0.3958
vn 0.8456 -0.0754 -0.5285
vn 0.3844 0.9013 -0.1995
vn -0.9607 -0.0393 -0.2748
vn 0.9610 0.0289 0.2749
vn -0.4209 0.9065 -0.0333
vn 0.0001 0.9811 0.1935
vn -0.4153 0.8943 -0.1666
vn 0.9846 0.1473 -0.0943
vn -0.7653 0.0909 0.6372
vn 0.8595 0.0909 -0.5030
vn 0.9513 0.1900 0.2428
vn 0.0044 0.7483 -0.6634
vn -0.8114 -0.0611 -0.5812
vn 0.3828 -0.9202 -0.0818
vn -0.9996 -0.0040 0.0284
vn 0.9957 0.0130 -0.0916
vn -0.0000 -0.7497 -0.6617
vn 0.9264 -0.0394 0.3746
vn -0.7448 -0.2205 0.6298
vn 0.0000 -0.9184 0.3958
vn 0.8456 0.0754 -0.5285
vn 0.3844 -0.9013 -0.1995
vn -0.9596 0.0294 -0.2798
vn 0.9621 -0.0386 0.2700
vn -0.4123 -0.9105 -0.0313
vn 0.0001 -0.9811 0.1935
vn -0.4153 -0.8943 -0.1666
vn 0.9802 -0.1714 -0.0989
vn -0.7615 -0.0624 0.6452
vn 0.8595 -0.0909 -0.5030
vn -0.9607 0.0393 -0.2748
vn 0.9513 -0.1900 0.2428
vn 0.0044 -0.7483 -0.6634
vn -0.8114 0.0611 -0.5812
vn -0.8101 0.0652 -0.5827
vn 0.3828 0.9202 -0.0818
vn -0.7448 0.2205 0.6298
vn -0.3792 0.8373 0.3938
vn 0.8427 -0.0527 -0.5357
vn 0.0000 0.9979 -0.0641
vn -0.9596 -0.0294 -0.2798
vn 0.9621 0.0386 0.2700
vn -0.4123 0.9105 -0.0313
vn 0.3755 0.9027 0.2099
vn 0.0000 0.9526 -0.3041
vn 0.9802 0.1714 -0.0989
vn 0.9298 0.0245 0.3671
vn -0.7615 0.0625 0.6452
vn 0.8596 -0.1681 -0.4825
vn -0.9616 -0.0287 -0.2731
vn 0.9759 0.0228 0.2168
vn -0.8101 -0.0652 -0.5827
vn 0.3911 -0.9169 -0.0796
vn -0.7552 -0.0925 0.6490
vn -0.3792 -0.8373 0.3938
vn 0.8427 0.0527 -0.5357
vn -0.0000 -0.9979 -0.0641
vn 0.9610 -0.0289 0.2749
vn -0.4209 -0.9065 -0.0333
vn 0.3755 -0.9027 0.2099
vn -0.0000 -0.9526 -0.3041
vn 0.9846 -0.1473 -0.0943
vn 0.9298 -0.0245 0.3671
vn -0.7653 -0.0909 0.6372
vn 0.8596 0.1681 -0.4825
vn -0.9616 0.0287 -0.2731
vn 0.9759 -0.0228 0.2168
# 74 vertex normals

vt 0.7804 0.6024 0.0000
vt 0.7134 0.6039 0.0000
vt 0.7049 0.3923 0.0000
vt 0.8842 0.5899 0.0000
vt 0.8535 0.3740 0.0000
vt 0.8847 0.3787 0.0000
vt 0.6776 0.6083 0.0000
vt 0.6422 0.6130 0.0000
vt 0.6422 0.4020 0.0000
vt 0.7667 0.7644 0.0000
vt 0.7429 0.7086 0.0000
vt 0.8073 0.7078 0.0000
vt 0.6422 0.7613 0.0000
vt 0.6422 0.7129 0.0000
vt 0.6910 0.7091 0.0000
vt 0.8554 0.2685 0.0000
vt 0.8215 0.3676 0.0000
vt 0.7828 0.2718 0.0000
vt 0.8225 0.2470 0.0000
vt 0.6734 0.3977 0.0000
vt 0.6422 0.3122 0.0000
vt 0.9139 0.6924 0.0000
vt 0.9197 0.5839 0.0000
vt 0.8456 0.5965 0.0000
vt 0.7643 0.3792 0.0000
vt 0.7325 0.2888 0.0000
vt 0.7050 0.7577 0.0000
vt 0.9033 0.2827 0.0000
vt 0.6915 0.3060 0.0000
vt 0.8668 0.7156 0.0000
vt 0.8788 0.7828 0.0000
vt 0.8261 0.7673 0.0000
vt 0.9858 0.7211 0.0000
vt 0.9283 0.7480 0.0000
vt 0.5040 0.6024 0.0000
vt 0.5201 0.3792 0.0000
vt 0.5796 0.3923 0.0000
vt 0.4002 0.5899 0.0000
vt 0.3648 0.5839 0.0000
vt 0.3997 0.3787 0.0000
vt 0.6068 0.6083 0.0000
vt 0.6110 0.3977 0.0000
vt 0.4771 0.7078 0.0000
vt 0.5415 0.7086 0.0000
vt 0.5177 0.7644 0.0000
vt 0.5934 0.7091 0.0000
vt 0.4290 0.2685 0.0000
vt 0.4619 0.2470 0.0000
vt 0.4629 0.3676 0.0000
vt 0.5017 0.2718 0.0000
vt 0.5711 0.6039 0.0000
vt 0.3706 0.6924 0.0000
vt 0.3249 0.6736 0.0000
vt 0.4389 0.5965 0.0000
vt 0.5519 0.2888 0.0000
vt 0.4310 0.3740 0.0000
vt 0.5794 0.7577 0.0000
vt 0.3811 0.2827 0.0000
vt 0.5929 0.3060 0.0000
vt 0.4583 0.7672 0.0000
vt 0.4057 0.7828 0.0000
vt 0.4176 0.7156 0.0000
vt 0.3561 0.7480 0.0000
vt 0.2986 0.7211 0.0000
vt 0.9595 0.6736 0.0000
# 65 texture coords

g spar
usemtl Material
f 1/1/1 2/2/1 3/3/1 
f 4/4/2 5/5/2 6/6/2 
f 7/7/3 8/8/3 9/9/3 
f 10/10/4 11/11/4 12/12/4 
f 13/13/5 14/14/5 15/15/5 
f 16/16/6 5/5/6 17/17/6 
f 18/18/7 19/19/7 17/17/7 
f 20/20/8 9/9/8 21/21/8 
f 11/11/9 2/2/9 1/1/9 
f 22/22/10 4/4/10 23/23/10 
f 15/15/11 14/14/11 8/8/11 
f 24/24/12 1/1/12 25/25/12 
f 26/26/13 18/18/13 25/25/13 
f 12/12/14 1/1/14 24/24/14 
f 24/24/2 17/17/2 5/5/2 
f 2/2/15 7/7/15 20/20/15 
f 27/27/5 15/15/5 11/11/5 
f 28/28/16 6/6/16 5/5/16 
f 3/3/17 20/20/17 29/29/17 
f 24/24/10 4/4/10 22/22/10 
f 15/15/18 7/7/18 2/2/18 
f 30/30/19 31/31/19 32/32/19 
f 33/33/20 34/34/20 22/22/20 
f 30/30/20 22/22/20 34/34/20 
f 35/35/21 36/36/21 37/37/21 
f 38/38/22 23/39/22 6/40/22 
f 39/41/23 40/42/23 9/9/23 
f 41/43/24 42/44/24 43/45/24 
f 44/46/25 14/14/25 13/13/25 
f 45/47/26 46/48/26 47/49/26 
f 47/49/27 46/48/27 48/50/27 
f 21/21/28 9/9/28 40/42/28 
f 35/35/29 49/51/29 42/44/29 
f 50/52/30 51/53/30 23/39/30 
f 44/46/31 39/41/31 8/8/31 
f 52/54/32 47/49/32 36/36/32 
f 36/36/33 48/50/33 53/55/33 
f 52/54/34 35/35/34 41/43/34 
f 52/54/22 38/38/22 54/56/22 
f 49/51/35 37/37/35 40/42/35 
f 42/44/25 44/46/25 55/57/25 
f 28/58/36 45/47/36 54/56/36 
f 56/59/37 40/42/37 37/37/37 
f 50/52/38 38/38/38 52/54/38 
f 49/51/39 39/41/39 44/46/39 
f 57/60/40 58/61/40 59/62/40 
f 50/52/41 60/63/41 33/64/41 
f 59/62/42 58/61/42 60/63/42 
f 25/25/43 1/1/43 3/3/43 
f 23/23/2 4/4/2 6/6/2 
f 20/20/3 7/7/3 9/9/3 
f 32/32/4 10/10/4 12/12/4 
f 27/27/5 13/13/5 15/15/5 
f 19/19/44 16/16/44 17/17/44 
f 25/25/45 18/18/45 17/17/45 
f 29/29/46 20/20/46 21/21/46 
f 12/12/47 11/11/47 1/1/47 
f 51/65/48 22/22/48 23/23/48 
f 7/7/49 15/15/49 8/8/49 
f 17/17/50 24/24/50 25/25/50 
f 3/3/51 26/26/51 25/25/51 
f 30/30/52 12/12/52 24/24/52 
f 4/4/2 24/24/2 5/5/2 
f 3/3/53 2/2/53 20/20/53 
f 10/10/54 27/27/54 11/11/54 
f 16/16/55 28/28/55 5/5/55 
f 26/26/56 3/3/56 29/29/56 
f 30/30/57 24/24/57 22/22/57 
f 11/11/58 15/15/58 2/2/58 
f 12/12/4 30/30/4 32/32/4 
f 51/65/20 33/33/20 22/22/20 
f 31/31/59 30/30/59 34/34/59 
f 49/51/60 35/35/60 37/37/60 
f 54/56/22 38/38/22 6/40/22 
f 8/8/23 39/41/23 9/9/23 
f 57/60/24 41/43/24 43/45/24 
f 55/57/25 44/46/25 13/13/25 
f 54/56/61 45/47/61 47/49/61 
f 36/36/62 47/49/62 48/50/62 
f 56/59/63 21/21/63 40/42/63 
f 41/43/64 35/35/64 42/44/64 
f 38/38/38 50/52/38 23/39/38 
f 14/14/65 44/46/65 8/8/65 
f 35/35/66 52/54/66 36/36/66 
f 37/37/67 36/36/67 53/55/67 
f 59/62/68 52/54/68 41/43/68 
f 47/49/22 52/54/22 54/56/22 
f 39/41/69 49/51/69 40/42/69 
f 43/45/70 42/44/70 55/57/70 
f 6/40/71 28/58/71 54/56/71 
f 53/55/72 56/59/72 37/37/72 
f 59/62/73 50/52/73 52/54/73 
f 42/44/74 49/51/74 44/46/74 
f 41/43/24 57/60/24 59/62/24 
f 51/53/41 50/52/41 33/64/41 
f 50/52/41 59/62/41 60/63/41 
# 96 faces

